<?xml version="1.0" encoding="utf-8"?>
<!-- Generator: Adobe Illustrator 24.1.2, SVG Export Plug-In . SVG Version: 6.00 Build 0)  -->
<svg version="1.1" id="Layer_1" xmlns="http://www.w3.org/2000/svg" xmlns:xlink="http://www.w3.org/1999/xlink" x="0px" y="0px"
	 viewBox="0 0 898 329.1" style="enable-background:new 0 0 898 329.1;" xml:space="preserve">
<style type="text/css">
	.st0{fill:#FFCC00;}
	.st1{clip-path:url(#SVGID_2_);fill:#FFFFFF;}
	.st2{fill-rule:evenodd;clip-rule:evenodd;fill:#D40511;}
</style>
<path id="path2854_1_" class="st0" d="M-0.2,327.9H897V0.6H-0.2"/>
<g>
	<defs>
		<polyline id="SVGID_1_" points="-2.2,1.1 895.8,1.1 895.8,329.3 -2.2,329.3 		"/>
	</defs>
	<clipPath id="SVGID_2_">
		<use xlink:href="#SVGID_1_"  style="overflow:visible;"/>
	</clipPath>
	<path id="path3088" class="st1" d="M701.8,330.2h7.5 M637.4,330.2h6.2 M578.2,330.2h4.6 M517.3,330.2h5 M435.9,330.2h5.7
		 M318.1,330.2h7 M310.3,330.2h7.8 M145.3,330.2h8 M140.3,330.2h4.9 M15.1,327.9v2.3h2.9 M730.5,330.2h6.1"/>
</g>
<path id="Combined-Shape_1_" class="st2" d="M164.1,205.1l-5.6,7.6H71.8v-7.6H164.1z M831,205.1v7.6l-112.7,0l5.6-7.6H831z
	 M280.4,146.5c6.7,0,6.6,2.5,3.3,7c-3.3,4.5-9,12.2-12.3,16.8c-1.7,2.3-4.8,6.5,5.5,6.5h81l0,0c-6.7,9.2-28.6,35.9-67.8,35.9H171.3
	l0,0l48.7-66.2H280.4L280.4,146.5z M450.3,176.8l-26.4,35.9h-69.7c0,0,26.4-35.9,26.4-35.9L450.3,176.8z M551.1,176.8l-26.4,35.9
	H455c0,0,26.4-35.9,26.4-35.9H551.1z M732,176.8l-26.4,35.9l0,0H593.7c-28.6,0-36.3-13.8-27.5-25.6c2.5-3.3,7.6-10.3,7.6-10.3l0,0
	H732z M174.5,190.9l-5.6,7.6H71.8v-7.6H174.5z M831,190.9v7.6H728.7l5.6-7.6H831z M184.9,176.8l-5.6,7.6H71.8v-7.6H184.9z
	 M831,176.8v7.6h-91.8l5.6-7.6H831z M345.2,105.3c35.5,0,44.6,28.1,34.7,41.5c-6.8,9.3-14.9,20.2-15.9,21.6l-0.1,0.2l0,0h-54.1
	c-10.3,0-7.2-4.2-5.5-6.5c3.4-4.6,8.9-12.4,12.2-16.9c3.3-4.4,3.4-7-3.3-7l0,0H181.1l24.3-33l0,0H345.2z M502.9,105.3l-26.7,36.3
	h31.1l26.7-36.3h69.7L557,168.7H386.6l46.6-63.3H502.9z M700.1,105.3l-46.6,63.3h-73.8c0,0,46.6-63.3,46.6-63.3H700.1z"/>
</svg>
