<?xml version="1.0" encoding="UTF-8"?>
<svg width="220px" height="60px" viewBox="0 0 220 60" version="1.1" xmlns="http://www.w3.org/2000/svg" xmlns:xlink="http://www.w3.org/1999/xlink">
    <!-- Generator: Sketch 57.1 (83088) - https://sketch.com -->
    <title>Icon/Courier/DPD</title>
    <desc>Created with Sketch.</desc>
    <g id="Icon/Courier/DPD" stroke="none" stroke-width="1" fill="none" fill-rule="evenodd">
        <g id="DPD-Logo" transform="translate(47.000000, 2.000000)">
            <path d="M1.2392831,12.2020875 C1.48025481,12.2708441 2.51299072,12.9240311 2.8228115,13.0959225 L9.12250057,16.7743971 C9.67329305,17.0838015 10.189661,17.3932059 10.706029,17.7026103 L12.2895574,18.6308235 C12.5649536,18.8027148 12.8059253,18.9402279 13.0813216,19.077741 L20.5514447,23.4437809 C20.6891428,23.5125375 20.8268409,23.581294 20.964539,23.6844288 C21.2399353,23.8563201 21.480907,23.9938332 21.7563032,24.1313463 L23.3398316,25.0595595 C23.6152279,25.2314508 23.8561996,25.3689639 24.1315958,25.506477 L25.7151242,26.4346902 C25.956096,26.5722032 26.1970677,26.8128511 26.1970677,27.191012 L26.1970677,48.024242 C26.1970677,48.2648899 26.0593695,48.5055377 25.9216714,48.6086725 C25.7839733,48.7461856 25.5430016,48.8493204 25.3364544,48.9524552 C23.8906241,49.8119119 24.0971713,49.6743988 22.7546146,48.9524552 C22.3415203,48.7461856 21.8940014,48.5742943 21.8940014,48.0586203 C21.8595768,46.8897592 21.8940014,45.6177633 21.8940014,44.4832805 L21.8940014,30.2162996 C21.8940014,28.8755471 21.9628504,29.2537081 20.310473,28.2567383 C18.2450011,27.0191207 16.1451048,25.8846379 14.1140575,24.6470203 L9.01922698,21.6904893 C8.64055714,21.4842197 8.29631184,21.2435718 7.917642,21.0373022 L6.29968907,20.0747107 C6.09314189,19.9371977 5.92101924,19.8684411 5.71447205,19.7309281 C5.33580222,19.4902802 4.95713238,19.3183888 4.57846255,19.077741 C4.19979271,18.8370931 3.82112288,18.6308235 3.44245304,18.4245539 L1.17043403,17.0838015 C0.963886852,16.9462884 0.7917642,16.8775319 0.585217017,16.7400188 C0.378669835,16.636884 0.172122652,16.5337492 0,16.3962361 L0,40.2547536 C0,41.8361539 0.0344245304,42.1455583 1.30813216,42.9018802 L21.9628504,55.0717868 C22.5480674,55.4155695 23.3742562,56 24.0627468,56 C24.6823883,56 25.1643318,55.6905956 25.5774261,55.4155695 L46.8517859,42.8675019 C48.1943426,42.0424235 48.16,41.6642626 48.16,40.2203753 L48.16,16.4306144 C47.9877954,16.5337492 47.8500973,16.6025057 47.6779747,16.7056405 L46.7485123,17.2556928 C45.81905,17.8057451 43.4437574,19.215254 42.5487196,19.6965498 C41.6536818,20.1778455 40.6209459,20.8310326 39.7259081,21.3467066 L37.8669835,22.4468112 C36.4900023,23.2718896 35.044172,24.0625897 33.6671908,24.8876681 C32.9098511,25.3345856 32.6000303,24.9908029 31.7394171,24.4751289 C30.6722566,23.8219419 30.9820774,23.6156723 30.8788038,22.4124329 C30.8443793,22.0686502 30.8788038,21.7592458 31.0165019,21.5529762 C31.1542,21.3467066 31.3263227,21.2779501 31.5328699,21.140437 L33.3917945,20.0747107 C35.0097475,19.1121192 36.6621249,18.2182843 38.2800778,17.2213145 C38.486625,17.0838015 38.6587477,16.9806667 38.8997194,16.8775319 C39.1062666,16.7400188 39.3128138,16.636884 39.5193609,16.4993709 L43.8224273,13.9897574 C44.132248,13.8178661 46.6796633,12.2708441 46.920635,12.2020875 C46.8517859,12.0989527 46.7485123,12.0645745 46.6108142,11.9958179 L28.882181,2.33552483 C28.296964,1.99174215 27.6773225,1.71671602 27.0921055,1.37293334 C26.4036148,0.960394137 25.6806997,0.582233197 24.9577846,0.204072258 C24.5791147,-0.00219734572 24.0627468,-0.036575613 23.5808034,0.0321809215 C23.4775298,0.0665591888 23.3054071,0.135315723 23.167709,0.169693991 C22.4447938,0.513476663 21.7563032,0.92601587 21.0333881,1.33855508 L13.2878687,5.56708195 C13.1501706,5.63583848 13.0813216,5.70459502 12.9091989,5.77335155 L10.0863874,7.32037358 C9.9486893,7.38913011 9.87984024,7.45788665 9.70771758,7.52664318 C8.74383073,8.00793892 7.19472686,8.90177387 6.12756642,9.45182615 L3.30475492,10.9988482 C3.06378321,11.1363612 1.37698122,11.9958179 1.2392831,12.2020875 L1.2392831,12.2020875 Z" id="Path" fill="#D8062E"></path>
            <path d="M112.396929,31.7408 C112.396929,29.8714182 112.971564,28.5905455 113.88422,27.5866182 L114.019429,27.4481455 C114.019429,27.4481455 114.019429,27.4481455 114.053231,27.4481455 C114.86448,26.6865455 116.216564,26.0980364 117.365834,26.0980364 C118.684115,26.0980364 120.070001,26.0980364 121.151667,26.7211636 L121.151667,37.6258909 C120.779844,37.6605091 120.340417,37.7643636 119.968594,37.7989818 C117.94047,37.9720727 115.540522,37.7643636 114.087033,36.2757818 C113.512397,35.6872727 113.208179,35.2026182 112.870158,34.4410182 C112.565939,33.6794182 112.396929,32.7447273 112.396929,31.7408 L112.396929,31.7408 Z M121.151667,21.7707636 L120.475626,21.5284364 C120.205209,21.4592 119.968594,21.3899636 119.664376,21.3553455 C117.365834,20.9745455 115.033491,21.1822545 112.90396,22.0477091 C111.213856,22.7400727 109.794169,23.9170909 108.746304,25.4056727 C108.306877,26.0634182 107.732242,27.1712 107.495627,27.9674182 C107.394221,28.3136 107.292815,28.6251636 107.225211,29.0059636 C106.718179,31.1522909 106.819586,33.8525091 107.495627,35.8949818 C107.833648,36.8989091 108.273075,37.7297455 108.780106,38.4913455 C109.050523,38.8375273 109.185731,38.976 109.422346,39.2529455 L110.402606,40.1876364 C110.909637,40.6030545 111.315262,40.8453818 111.889897,41.1569455 C113.07297,41.8146909 114.154637,42.0916364 115.472918,42.3685818 C116.115157,42.5070545 116.723595,42.5070545 117.196824,42.5762909 C117.501043,42.6109091 117.872866,42.6109091 118.10948,42.6455273 L120.847449,42.5762909 C121.117865,42.5416727 121.455886,42.5070545 121.726303,42.5070545 C121.996719,42.4724364 122.33474,42.4378182 122.571355,42.4378182 C123.517813,42.3339636 124.565677,42.1608727 125.478333,41.9877818 L126.221979,41.8146909 C126.39099,41.7800727 126.56,41.7800727 126.56,41.6416 L126.56,12.4584727 C126.56,12.3546182 126.526198,12.32 126.424792,12.32 L121.117865,12.32 L121.117865,21.7707636 L121.151667,21.7707636 Z M75.7554745,26.2711273 L77.0061514,26.6865455 L77.0061514,37.6258909 L75.8230787,37.7989818 C75.5864641,37.8336 75.3836516,37.7989818 75.1808392,37.8336 L74.3357872,37.8336 C73.3555269,37.8336 72.578079,37.6951273 71.8344333,37.4181818 C71.1921938,37.2104727 70.448548,36.7950545 69.9753189,36.3104 C65.9528714,32.1562182 68.8936524,24.4709818 75.7554745,26.2711273 L75.7554745,26.2711273 Z M77.0061514,21.7707636 C76.9047452,21.7361455 76.7695369,21.6669091 76.6681306,21.6322909 C71.5978187,19.6936727 65.5134444,22.3592727 63.5191217,27.4481455 C63.3839134,27.7597091 63.2825072,28.1058909 63.1811009,28.4174545 C62.3360489,31.3946182 62.6402677,35.1333818 64.1951633,37.7989818 C65.2430278,39.5645091 66.8655276,40.8453818 68.758444,41.6069818 C70.3471418,42.2647273 71.8682354,42.5070545 73.6259435,42.5762909 C73.9301622,42.5762909 74.2005788,42.6455273 74.5724017,42.6109091 C75.2484433,42.5416727 76.6005265,42.5762909 77.3103702,42.4724364 C77.6145889,42.4378182 77.8850055,42.4378182 78.2230263,42.4032 C79.6089116,42.2301091 80.217349,42.1262545 81.6032343,41.8493091 L82.4144842,41.6762182 L82.4144842,12.3546182 L77.0061514,12.3546182 L77.0061514,21.7707636 L77.0061514,21.7707636 Z M85.4228692,22.9477818 L85.4228692,50.4 L90.865004,50.4 L90.865004,26.6519273 C91.3382332,26.5480727 91.4396394,26.4442182 92.1832851,26.3057455 C94.9550557,25.8210909 98.1324511,26.3749818 99.2817218,29.3175273 C100.126774,31.5677091 99.7211489,34.8218182 97.7268262,36.4488727 C97.659222,36.5181091 97.5916179,36.5527273 97.5240137,36.6219636 C97.4226075,36.6912 97.3888054,36.7258182 97.2873991,36.7950545 C97.219795,36.8296727 97.1521908,36.8642909 97.0507846,36.8989091 C96.7465659,37.072 96.6789617,37.1412364 96.2733368,37.2797091 C95.5634931,37.5220364 94.684639,37.7297455 93.7381808,37.7297455 L93.7381808,42.4724364 C93.7381808,42.7147636 94.4480245,42.5416727 94.9212536,42.5416727 C95.1578681,42.5416727 95.2930765,42.5070545 95.5634931,42.5070545 C96.5775555,42.4724364 98.5380761,41.9877818 99.4845343,41.5377455 C99.6535447,41.4338909 99.788753,41.3992727 99.9577634,41.3300364 C100.160576,41.2261818 100.261982,41.1569455 100.430993,41.0530909 C100.735211,40.88 101.005628,40.7069091 101.276045,40.4992 C103.980211,38.4221091 105.163284,35.5141818 105.163284,31.2215273 C105.163284,28.3828364 104.081617,25.5787636 101.985888,23.7786182 C101.512659,23.3632 101.276045,23.1901091 100.701409,22.8439273 C100.194378,22.5323636 99.5521385,22.2208 98.9775031,22.0130909 C98.0986491,21.7015273 96.780368,21.3207273 95.8677118,21.2861091 C95.4620869,21.2861091 95.1240661,21.2168727 94.684639,21.2168727 C92.4875039,21.2168727 91.3382332,21.3207273 89.2087021,21.7361455 C88.1946398,21.9438545 86.7749524,22.3246545 85.7946921,22.7400727 C85.5580776,22.8093091 85.4228692,22.8093091 85.4228692,22.9477818 L85.4228692,22.9477818 Z" id="Shape" fill="#39393B"></path>
        </g>
    </g>
</svg>