<svg xmlns="http://www.w3.org/2000/svg" width="108" height="32" viewBox="0 0 108 32" fill="none">
<rect fill="#007BC4" height="32" width="108"/>
<path d="M89.8139 8.55063C89.8139 7.10516 88.5945 6 87.0903 6C85.5861 6 84.3667 7.10516 84.3667 8.55063C84.3667 9.9961 85.5861 11.1013 87.0903 11.1013C88.5945 11.1013 89.8139 9.9961 89.8139 8.55063Z" fill="white"/>
<path d="M16 6.13342V9.41078H18.0337V23.6235H16V26.9H34.5128V21.3899H30.8501V23.6235H22.0171V18.0535H30.0411V14.925H22.0171V9.41078H30.8501V11.6444H34.5128V6.13342H16Z" fill="white"/>
<path d="M53.3842 6.13342L47.4623 20.7878L41.5987 6.13342H36.0564L44.6834 27H47.0496L55.6418 6.13342H53.3842Z" fill="white"/>
<path d="M60.3424 16.1305V8.66691H71.8917C73.8276 8.66691 74.9316 8.97579 75.6802 9.6367C76.3522 10.2299 76.726 11.0765 76.726 12.2172C76.726 13.3929 76.3931 14.3522 75.7129 15.0378C75.0078 15.7484 73.9502 16.1305 71.9611 16.1305H60.3424ZM81.9134 26.9004L74.2754 18.4181C77.5246 18.1001 79.9788 15.8388 79.9788 12.1838C79.9788 10.3322 79.3968 8.91995 78.3037 7.9275C76.9536 6.70173 75.0069 6.1333 71.8916 6.1333H57.1926V26.9004H60.3424V18.6642H70.7615L78.0423 26.9004H81.9134Z" fill="white"/>
<path d="M89.4599 24.1037C89.4599 25.32 89.9839 25.8175 91.1488 26.3776V26.9004H83.2668V26.3776C84.4316 25.8175 84.9557 25.32 84.9557 24.1037V16.1521C84.9557 15.0783 84.7553 14.4868 83.2668 13.5309V13.0081H89.4599V24.1037Z" fill="white"/>
</svg>