<?xml version="1.0" encoding="utf-8"?>
<!-- Generator: Adobe Illustrator 25.2.1, SVG Export Plug-In . SVG Version: 6.00 Build 0)  -->
<svg version="1.1" id="Layer_1" xmlns="http://www.w3.org/2000/svg" xmlns:xlink="http://www.w3.org/1999/xlink" x="0px" y="0px"
	 viewBox="0 0 110 60" style="enable-background:new 0 0 110 60;" xml:space="preserve">
<style type="text/css">
	.st0{fill-rule:evenodd;clip-rule:evenodd;fill:#3C3C3B;}
	.st1{fill:#3C3C3B;}
	.st2{fill-rule:evenodd;clip-rule:evenodd;fill:#FFCC00;}
</style>
<g id="Icon_x2F_Courier_x2F_InPost">
	<g id="InPost_Logo" transform="translate(60.000000, 0.000000)">
		<rect id="Rectangle" x="-16.8" y="21.7" class="st0" width="3.1" height="16.6"/>
		<path id="Path" class="st0" d="M-1.2,38.4h-2.7v-7.9c0-1.6-0.7-2.5-2-2.6C-6.7,27.8-8,28-9,28.2v10.2h-2.7V26.2
			c0,0,3.3-0.7,6.3-0.7c1.2,0,2.3,0.4,3.1,1.2c0.8,0.8,1.2,1.8,1.2,3.2L-1.2,38.4z"/>
		<path id="Shape" class="st1" d="M10.6,27.4c0-2-1-3-2.9-3H4.2v6h3.4c0.9,0,1.7-0.3,2.2-0.8C10.4,29.1,10.6,28.4,10.6,27.4
			 M13.8,27.4c0,1.7-0.5,3.1-1.6,4.1c-1,1-2.5,1.5-4.3,1.5H4.2v5.3h-3V21.7h6.6c1.9,0,3.4,0.5,4.5,1.5
			C13.3,24.3,13.8,25.7,13.8,27.4"/>
		<path id="Shape_1_" class="st1" d="M23.5,32.1c0-1.2-0.3-2.2-0.9-3c-0.6-0.7-1.4-1.1-2.3-1.1c-0.9,0-1.7,0.4-2.3,1.1
			c-0.6,0.7-0.9,1.7-0.9,3c0,1.2,0.3,2.2,0.9,3c0.6,0.7,1.4,1.1,2.3,1.1s1.7-0.4,2.3-1.1C23.3,34.3,23.5,33.3,23.5,32.1 M26.4,32.1
			c0,2-0.6,3.6-1.7,4.8s-2.6,1.8-4.3,1.8c-1.8,0-3.2-0.6-4.3-1.8c-1.1-1.2-1.7-2.8-1.7-4.8c0-2,0.6-3.6,1.7-4.8
			c1.1-1.2,2.6-1.8,4.3-1.8c1.8,0,3.2,0.6,4.4,1.8C25.8,28.5,26.4,30.1,26.4,32.1"/>
		<path id="Path_1_" class="st0" d="M38.2,34.4c0,1.2-0.5,2.3-1.5,3.1c-1,0.8-2.3,1.2-3.8,1.2c-2.5,0-4.4-0.7-5.8-2.2l2.1-1.7
			c1,1,2.3,1.5,3.6,1.5c0.8,0,1.4-0.2,1.8-0.5c0.5-0.3,0.7-0.7,0.7-1.1c0-0.5-0.3-0.9-0.8-1.1c-0.3-0.1-1.1-0.3-2.4-0.5
			c-1.6-0.2-2.7-0.6-3.4-1c-0.8-0.6-1.2-1.4-1.2-2.5c0-1.1,0.5-2.1,1.4-2.8c1-0.8,2.2-1.1,3.8-1.1c1.9,0,3.6,0.6,4.9,1.9l-1.6,1.7
			c-0.9-0.8-2.1-1.3-3.4-1.3c-1.6,0-2.4,0.5-2.4,1.4c0,0.5,0.4,0.9,1.1,1.1c1,0.2,2.1,0.3,3.1,0.5C37,31.2,38.2,32.4,38.2,34.4"/>
		<path id="Path_2_" class="st0" d="M44.7,38.4c-0.5,0.1-0.9,0.2-1.4,0.2c-1.6,0-2.6-0.3-3.1-1c-0.4-0.5-0.6-1.6-0.6-3.1V22.2h2.7
			v3.6h2.4V28h-2.4v6.2c0,0.7,0.1,1.2,0.3,1.4c0.2,0.3,0.7,0.4,1.4,0.4c0.2,0,0.5,0,0.7,0V38.4z"/>
		<path id="Path_3_" class="st2" d="M-40.3,30c-4.7,1.7-9.7,1.7-14.4,0C-50.1,28.4-45,28.4-40.3,30"/>
		<path id="Path_4_" class="st2" d="M-30.4,11.7c-2-1.4-3.7-3.2-5.1-5.2c-1.4-2-2.4-4.2-3-6.5c2,1.4,3.7,3.2,5.1,5.2
			C-32,7.2-31,9.4-30.4,11.7"/>
		<path id="Path_5_" class="st2" d="M-37.7,19.6c-2.4-0.3-4.8-1.1-7-2.2c-2.2-1.1-4.1-2.6-5.8-4.4c2.4,0.3,4.8,1.1,7,2.2
			C-41.3,16.3-39.3,17.8-37.7,19.6"/>
		<path id="Path_6_" class="st2" d="M-30.9,35.6c1.3-0.4,2.6-0.9,3.8-1.6c0,0-4.9-1.4-4.5-6.5c1.1-8.4,7.9-15,16.5-16.1
			c-0.9-0.1-1.8-0.2-2.8-0.2c-10.5,0-19.1,8.5-19,18.8c0,10.3,8.6,18.7,19.2,18.6c0.9,0,1.7-0.1,2.6-0.2
			C-22.6,47.6-28.7,42.4-30.9,35.6z"/>
		<path id="Path_7_" class="st2" d="M-30.4,48.3c-2,1.4-3.7,3.2-5.1,5.2c-1.4,2-2.4,4.2-3,6.5c2-1.4,3.7-3.2,5.1-5.1
			C-32,52.8-31,50.6-30.4,48.3"/>
		<path id="Path_8_" class="st2" d="M-37.7,40.4c-2.4,0.3-4.8,1.1-7,2.2c-2.2,1.1-4.1,2.6-5.8,4.4c2.4-0.3,4.8-1.1,7-2.2
			C-41.3,43.6-39.3,42.2-37.7,40.4"/>
	</g>
</g>
</svg>
