<svg id="Layer_1" data-name="Layer 1" xmlns="http://www.w3.org/2000/svg" xmlns:xlink="http://www.w3.org/1999/xlink" viewBox="0 0 898 329.17"><defs><style>.cls-1,.cls-5{fill:none;}.cls-2{fill:#ed2929;}.cls-3{clip-path:url(#clip-path);}.cls-4,.cls-6{fill:#fff;}.cls-5,.cls-6{stroke:#fff;stroke-linecap:round;stroke-linejoin:round;stroke-width:0.2px;}</style><clipPath id="clip-path" transform="translate(0 0)"><rect class="cls-1" width="898" height="328.27"/></clipPath></defs><g id="Layer_2" data-name="Layer 2"><g id="PFW"><g id="g2826"><g id="g3458"><path id="path2854" class="cls-2" d="M898,0H0V329.15H898Z" transform="translate(0 0)"/><g id="g2858"><g class="cls-3"><g id="g2860"><g id="g3086"><path id="path3088" class="cls-4" d="M635.4,293.35A750.93,750.93,0,0,0,526,259.41c31.9,2.64,72,7.6,115.21,22.43a6.29,6.29,0,0,1,.94,4.12c-.56,2.64-2.9,5.13-6.72,7.39m-32,8.83a623.19,623.19,0,0,0-80.93-40,749,749,0,0,1,108.74,33.27c-6.66,2.89-16.1,5.22-27.81,6.72m-42.19,1.59a422.59,422.59,0,0,0-48-41.39,610,610,0,0,1,84.35,40.47,276.63,276.63,0,0,1-36.3.92m-44.46-4.21a373.61,373.61,0,0,0-12.35-39.07A400.08,400.08,0,0,1,556,303.57a393.29,393.29,0,0,1-39.21-4m-23.48-4.25c-7.32-1.53-14.43-3.25-21.35-5.09a364.54,364.54,0,0,1,28.13-31.32c4.61,11.67,8.54,25.06,12.53,40.07-6.43-1.06-12.61-2.26-19.31-3.66m-25.43-6.14c-13.3-3.65-25.31-7.7-36.74-12.09a406.32,406.32,0,0,1,64.32-18.51,378.9,378.9,0,0,0-27.58,30.6m-74-29.33a622,622,0,0,1,92.66-3,423.57,423.57,0,0,0-60.35,18.33,275.66,275.66,0,0,1-32.31-15.32m-26.61-19.48a735.87,735.87,0,0,1,110.55,12.56,630.07,630.07,0,0,0-89,4c-9.46-5.73-16.79-11.35-21.56-16.51M268.5,281.56c-6.87-11.34-9.6-22.32-7.47-32.31a22,22,0,0,1,1.67-4.67,685.51,685.51,0,0,1,99.76-4.37c4.22,5.34,11.18,11.26,20.61,17.34a705.22,705.22,0,0,0-114.57,24M160,261.21c5.37-4.17,12.4-8.1,21.8-11.56a630.09,630.09,0,0,1,90.13-22,43.23,43.23,0,0,0-12.06,13.68A659.34,659.34,0,0,0,160,261.21m-8.88,2.47c-12.64,3.75-25.14,8-37.52,12.51q21.87-10,44.41-18.35a53.32,53.32,0,0,0-6.89,5.84m184.41-43.42c7.52.23,15.78,1,24.44,2.07a9.26,9.26,0,0,0-2.35,4.08c-.64,3.08.2,6.51,2.37,10.2a691.94,691.94,0,0,0-95.25,4.15c4.06-6.41,10.75-13,18.19-14.86q26.16-3.9,52.6-5.64m25.52,6.89c.26-1.24,1.46-2.79,3.48-4.23,35,4.92,76.48,15.64,108.13,25.41a737.36,737.36,0,0,0-108.4-11.61,10.43,10.43,0,0,1-.75-1c-2.14-3.31-3-6.2-2.46-8.61M375.47,219q22.21,0,44.49,1.5c20.81,5.35,45.28,16,66.87,28.66-31.5-10.33-77.71-22.9-117.14-28.85a27.83,27.83,0,0,1,5.78-1.31m109.39,9.43c4.35,6.6,9.14,16.63,11.92,22.72a293.41,293.41,0,0,0-60.48-29.3q24.33,2.34,48.56,6.58m20.86,4c5.4,1.13,10.79,2.35,16.13,3.61a233.49,233.49,0,0,0-20.49,16.79,238.3,238.3,0,0,0-11.87-23.57c5.42,1,10.82,2,16.23,3.17m66.9,17.8a285.15,285.15,0,0,0-66.36,2.9c5-4.47,13.51-11.69,20.19-16q23.44,5.7,46.17,13.07m55.55,21a41.87,41.87,0,0,1,8.4,5.33c-45.86-14.95-87.94-19-120.05-21.4,24.78-3.18,49.59-3.41,70.12-.17q21.11,7.36,41.53,16.24m73.12,37.62q16,9.65,31.42,20.3h6.1C669.12,280.4,591.08,246.71,506.45,229a634.63,634.63,0,0,0-319.79,15.4h0c-1.28.39-2.44.81-3.63,1.23a632,632,0,0,0-108.55,46.2l-.17.06h0a634.81,634.81,0,0,0-57,34.92v2.31h2.94A632.33,632.33,0,0,1,76,295a635.65,635.65,0,0,1,70.87-26.32,47.93,47.93,0,0,0-8.24,19.07c-2.76,12.87-1.4,26.74,3.89,41.42h4.93c-5.47-14.41-6.91-28-4.27-40.45,1.55-7.19,4.31-15,11.12-22.27A652.91,652.91,0,0,1,258.13,245a22.9,22.9,0,0,0-1,3.34c-2.33,10.83.32,22.47,7.26,34.37a758.49,758.49,0,0,0-116.9,46.44h8A754.77,754.77,0,0,1,266.18,285.8c9.34,14.42,25.11,29.17,46.3,43.35h7.77c-22.85-14.58-39.9-29.73-49.84-44.58a701.89,701.89,0,0,1,117.53-24.1,257.41,257.41,0,0,0,33.48,16.61,603.66,603.66,0,0,0-101.17,52.07h7c33.29-20.79,66.53-37.66,98.88-50.19a372.81,372.81,0,0,0,39.34,13.17c-8.77,11.08-18.13,23.52-27.4,37h5.66c9-13.13,17.2-25.13,25.77-35.91q11.16,3,23.08,5.51c7.15,1.49,13.88,2.79,21,3.9,2.15,8.36,3.94,17.24,5.89,26.52h5c-1.93-9.06-4.6-17.75-6.68-26a407.57,407.57,0,0,0,42,4q10.4,10.44,20.66,22H585c-6.67-7.6-13.43-14.9-20.25-21.82a272.69,272.69,0,0,0,38.12-1.44c12.35,7.27,24.59,15.06,36.7,23.26h6.21q-18.43-12.7-37.29-24c11.48-1.7,20.88-4.34,27.36-7.85A680.62,680.62,0,0,1,704,329.15h7.49a676.89,676.89,0,0,0-72-34.19c3.28-2.43,5.4-5.19,6.08-8.27a8,8,0,0,0-.12-3.38A353.3,353.3,0,0,1,686.6,301l14.69,7.89" transform="translate(0 0)"/></g><g id="g3090"><path id="path3092" class="cls-4" d="M188.1,131.5l9.08-15.75,5.32-.1s4.28.34,3.44,4.56h0a15.34,15.34,0,0,1-10.15,10.61c-.16.06-.35.09-.53.14a30.7,30.7,0,0,1-7.16.51m-3.47,6.17s7.28.42,12.21-1,11.13-6.27,13.86-11.33c1-1.78,3.19-6.32,1.87-10.83h0c-1.61-5.56-7.19-4.94-7.19-4.94L193,110l-24.78,42.05,6.74.28h1Z" transform="translate(0 0)"/></g><g id="g3094"><path id="path3096" class="cls-4" d="M635.54,223.61l.25-2.2-6.27-.64-4.94-.5,2.73-24.39.27-2.43-5.32-.32L618.63,225l4.89.5,11.7,1.2Z" transform="translate(0 0)"/></g><g id="g3098"><path id="path3100" class="cls-4" d="M522.39,129c4-13.89,14.53-22.85,30.93-23.56,10.41-.44,15.95,4.63,18.62,11a31,31,0,0,1,1.14,18.37c-1.69,6.44-9.26,21.14-30,21.92A25,25,0,0,1,528.3,153c-6.19-4.17-9.45-11.91-5.93-24m20.48,41.08c33.43-2.51,42.38-20.31,46.18-38.66a31.25,31.25,0,0,0-3-20.94c-5-9.34-15.27-16.53-31.63-15.92a48,48,0,0,0-32.31,14,56,56,0,0,0-5.74,6.57A42.76,42.76,0,0,0,509.9,127c-.51,1.65-.87,3.2-1.21,4.75a42,42,0,0,0-1,11,26.34,26.34,0,0,0,9.17,19.35c7.11,6.18,17.25,8.62,26,8" transform="translate(0 0)"/></g><g id="g3102"><path id="path3104" class="cls-4" d="M483.82,135.52h20.66l1-3.78,1.86-7.22H487l4.21-15.9,22.6-.81.68-2.67,1.82-7.45L480.94,99l-10.8,38.63-.64,2.28-7,25.22,8.54.38,4.44.19Z" transform="translate(0 0)"/></g><g id="g3106"><path id="path3108" class="cls-4" d="M360.82,109.68l2.35-6.05-10.06.29-2.56,6.14-3.43,8.24-5.46,13.13-3.47,8.35-6.58,15.71L330,159.33l4.06.17,4.27.16,21.89.87,1.36-3.84,2.1-5.87-10.28-.44-8.29-.36Z" transform="translate(0 0)"/></g><g id="g3110"><path id="path3112" class="cls-4" d="M328.19,155.35l2.15-5.61-9.84-.41-7.78-.31,6.92-15.18h15l.91-2.33,2.38-6h-7.08l-7.74.08,5.41-12.88,16.58-.47.87-2.06,2.55-6-26.38,1-3,6.58-4,8.71-15.08,33.21-1.93,4.26,4.88.21,2.76.13,20.84.95Z" transform="translate(0 0)"/></g><g id="g3114"><path id="path3116" class="cls-4" d="M296.43,155.57l.45-1.11,3.76-9.09c-8.21,4-13.45,4.34-16.77,3.15a8.31,8.31,0,0,1-5.37-6.25c-.82-3.54,1.31-10.05,5.83-16.28a41.57,41.57,0,0,1,5.54-6.09c.11-.13.28-.26.41-.39.63-.56,1.15-1.14,1.81-1.66a27.86,27.86,0,0,1,3.1-2.07c11.56-6.82,18.47,1.62,18.47,1.62l3-6.37,1.23-2.65c-2.28-3.63-18.55-7.79-33.15,5.52a51.22,51.22,0,0,0-4.34,4.62c-5.37,6.37-9.88,14.61-11.19,21.39a17,17,0,0,0-.27,5.87c1.12,5.91,3.77,9.2,7,11,8.3,4.57,20.47-1.2,20.47-1.2" transform="translate(0 0)"/></g><g id="g3118"><path id="path3120" class="cls-4" d="M385.35,132.79l-.4-.95,12.27-10.21-36.11,9L355.68,132l4.32,1.49,9.45,3.23,20.76,7.14Z" transform="translate(0 0)"/></g><g id="g3122"><path id="path3124" class="cls-4" d="M424,117.57l.37-2.75L427.05,93l2.67-22-26.53,45.73L416.83,106l1.36,2.15,3.49,5.54Z" transform="translate(0 0)"/></g><g id="g3126"><path id="path3128" class="cls-4" d="M407,152.35l-6.83,5L397.81,159l-.47-.9L393,149.36l-1.31-2.6-.33,2.05-7.66,48.55,10.13-17,9.69-16.24,7-11.78,2.81-4.7Z" transform="translate(0 0)"/></g><g id="g3130"><path id="path3132" class="cls-4" d="M467.92,132l-37.36-10.26-2.22-.63-2.78-.76,6.9,11.92-6.06,4.89-9.14,7.41,5.59-1.38,15.39-3.81,20-5Z" transform="translate(0 0)"/></g><g id="g3134"><path id="path3136" class="cls-4" d="M733.56,165.63l.14,11.68,1.68.07,5.79.26,50,2.24-.37-6.13-.54-9.37-30.64-1.17-7.22-.28L751.59,138l32.7.19-.22-5.3-.39-9.58H751l-.53-20.58,33.48-.81-.31-4.65-.64-9.8-50.22,1.94.14,13.37L733,118Z" transform="translate(0 0)"/></g><g id="g3138"><path id="path3140" class="cls-5" d="M405,130l7.49-12.73-16.71,13-2.06,1.6Z" transform="translate(0 0)"/></g><g id="g3142"><path id="path3144" class="cls-4" d="M223.46,134.63l-9.28-.09,13.47-16.63Zm11.79-21.18,1.08-5-9,.27L217.1,121.18h0l-16.57,20.19L200,142l-9.21,11.19,7.71.25h.86l9.43-12.12,12.66.47-1.13,4.68-1.83,7.88,5.23.19,2.61.1Z" transform="translate(0 0)"/></g><g id="g3146"><path id="path3148" class="cls-4" d="M254.61,131.21a25.53,25.53,0,0,1-7.4.43L256,114.73l7.08-.32c4,.49,4.77,2.74,4.29,5.21a15.41,15.41,0,0,1-12.73,11.59m1.18,6.67c13.85-2.13,18.14-13,19.42-16.77a14.22,14.22,0,0,0,.73-7.69c-1.55-6.58-9.94-6.21-9.94-6.21l-14.38.58-17,32.65-7.43,14.27,4.29.16,2.78.1h.87l12-23.23,2.06,10L252,155.85l3.54.11,5.67.17Z" transform="translate(0 0)"/></g><g id="g3150"><path id="path3152" class="cls-4" d="M653.83,143.51a40.48,40.48,0,0,0,11.56,19.67c13.64,13.37,37.08,20.76,62.51,8.75v-3.76l-.11-13.2c-3.77,2.63-14,6.72-23.46,6.9s-18-2.68-24.33-8.07a31.7,31.7,0,0,1-10.85-20.69c-1.87-15,15-26.82,22.12-28.8,21.61-6.06,35.86,5.14,35.86,5.14l0-8.4V93.94c-2.47-1.79-18-5.42-28.48-4.65-6.19.44-28,4.28-39,22.17-4.14,6.72-6.79,15.34-6.46,26.59a30.39,30.39,0,0,0,.74,5.46" transform="translate(0 0)"/></g><g id="g3154"><path id="path3156" class="cls-4" d="M586.33,170.68l11.4.54,4.18.19,8.69-65.34s10.73-.6,15.65-.65c3.79-.06,8.57,2.93,9.89,8.16a12.22,12.22,0,0,1,.2,5c-1.86,9.23-10.52,12.7-17.94,14a51.16,51.16,0,0,1-11.19.63l9.23,13.92,17.07,25.66,5.06.21,14.47.62L630.22,142.8c12-4.75,20.44-11.3,21.81-21.7,1.05-8.12-.35-13.81-2.88-17.86-6.66-10.64-21.29-9.74-21.29-9.74L597,94.58l-3.67,26.17-5.24,37.55Z" transform="translate(0 0)"/></g><g id="g3158"><path id="path3160" class="cls-4" d="M795.06,240.6l-.21-3.59-13.15-1.29-5.08-.51L776.07,224l17.1,1.42-.11-1.9-.2-3.7-11.94-1-5.07-.41-.49-9.89,18.29,1.28-.12-1.72-.29-3.79-24-1.65,1.65,38,5.12.51L795.23,243Z" transform="translate(0 0)"/></g><g id="g3162"><path id="path3164" class="cls-4" d="M740.91,231.86l-.44-25.35h.84c6.41.39,10,1.62,12.66,3.78A10.43,10.43,0,0,1,755.7,212c1.53,1.88,2.29,4.33,2.5,7.87.35,5.06-1.41,7.79-4,9.67-1.18.83-3.23,2.36-8.14,2.5a33.64,33.64,0,0,1-4.14-.17s-.36,0-1-.06m23-11.12c.06-6.2-2-10.48-4.92-13.47-4.48-4.56-11.14-6-15.79-6.26l-8.43-.57.41,36.5,5.18.55,2.32.24c7.51.76,21.06-2,21.23-17" transform="translate(0 0)"/></g><g id="g3166"><path id="path3168" class="cls-4" d="M727.32,203.19v-3.3l-5.65-.36v36l5,.45.91.09Z" transform="translate(0 0)"/></g><g id="g3170"><path id="path3172" class="cls-4" d="M555.39,188.7l-5.93-.33-5.52,10.76-2.25,4.46-2.94-11.23-1.5-5.81-7.63,12.65-2.76,4.65-3.24-15.56-.32-1.58-5.25-.37,6.36,29.13,2.68-4.21,8-12.54,1.51,5.75L539.9,217l2.35-4.29,12.18-22.17Z" transform="translate(0 0)"/></g><g id="g3174"><path id="path3176" class="cls-4" d="M561.51,212a8.16,8.16,0,0,1-1.81-7,12.42,12.42,0,0,1,4.2-7.13,11.17,11.17,0,0,1,7.87-2.87,8.78,8.78,0,0,1,6.23,2.43c.21.22.46.4.64.63a9,9,0,0,1,1.9,7.27,10.72,10.72,0,0,1-4.06,7.15,11.81,11.81,0,0,1-8,2.68,13.28,13.28,0,0,1-2.51-.41,8.9,8.9,0,0,1-4.48-2.71m18.3,4.26a15.69,15.69,0,0,0,6-10.63,13.33,13.33,0,0,0-3.28-11,11.66,11.66,0,0,0-1.82-1.76,13,13,0,0,0-8.44-3,17.34,17.34,0,0,0-11.43,4.26,17.15,17.15,0,0,0-6.39,10.37,12.48,12.48,0,0,0,2.81,10.82,13.82,13.82,0,0,0,5.53,3.66,17.3,17.3,0,0,0,5.13,1,17.75,17.75,0,0,0,11.87-3.8" transform="translate(0 0)"/></g><g id="g3178"><path id="path3180" class="cls-4" d="M605.39,211.84h0c4.38-.9,7.06-4.17,7.65-9.1a9.3,9.3,0,0,0-2-7.57c-1.72-2-4.45-3.14-8.06-3.31l-9.8-.68-4,30.81,4,.41,1.26.13L598,196.65l5.37.36c2.08.14,3.53,1,4.18,2.58a5.68,5.68,0,0,1,.3,3c-.52,3.55-4.17,4.34-7.13,4.42a25,25,0,0,1-3.86-.27l3.12,5.67,6.27,11.27,2.44.25,4.17.4Z" transform="translate(0 0)"/></g><g id="g3182"><path id="path3184" class="cls-4" d="M648.84,200.1l1.63.11c3.41.21,8.36,1,11.28,4.18,1.64,1.79,2.62,4.33,2.29,8-.81,8.88-6.35,10.57-12.45,10.41a28,28,0,0,1-2.94-.17l-1.9-.27Zm20.5,13c.49-6.18-1.44-10.32-4.4-13.06-3.72-3.43-9-4.7-13.44-5l-7.58-.51-3.06,32.76,4.86.5,2.2.22c7.9.82,20.22-.22,21.42-14.89" transform="translate(0 0)"/></g><g id="g3186"><path id="path3188" class="cls-4" d="M715.29,199.13l-5.6-.36-6.4,15.94-1.82,4.53-5.84-16.16-2.23-6.16-7.16,16.18-2,4.53-5.85-18-1-3-5.78-.41L683.47,232l2-4.66L692.72,210l2.71,7.79,5.54,16,1.88-4.56,11.16-27Z" transform="translate(0 0)"/></g><g id="g3190"><path id="path3192" class="cls-6" d="M402.53,143.78l1.52-8.62L405,130l-11.28,1.81,1.65,3.18,6.5,12.5Z" transform="translate(0 0)"/></g><g id="g3194"><path id="path3196" class="cls-6" d="M409.63,130.75l11.85,2L417,125l-3-5.17-1.24-2.16-.25-.4L405,130Z" transform="translate(0 0)"/></g><g id="g3198"><path id="path3200" class="cls-5" d="M405,130l-.94,5.19-1.52,8.62-.68,3.67,1.85-1.38,17.78-13.32-11.85-2Z" transform="translate(0 0)"/></g></g></g></g></g></g></g></g></svg>