<svg xmlns="http://www.w3.org/2000/svg" viewBox="0 0 556 187.53"><defs><style>.cls-1{fill:#00b040;}.cls-2{fill:#ffd200;}.cls-3{fill:#fff;}</style></defs><g id="Layer_2" data-name="Layer 2"><g id="Logos"><rect class="cls-1" width="556" height="187.53"/><rect class="cls-2" x="486.21" y="118" width="14.97" height="14.97"/><path class="cls-3" d="M114.7,56.08v20.3H100V71.05H94.65v47H100v15H70.29V118h5.33V70.8H70.29v5.33H55.07V55.83H114.7Zm-1,38.57V116c0,5.58,1.27,9.9,4.06,13.2s6.6,4.82,11.92,4.82c6.35,0,11.42-2.54,15.74-7.36h.25V133H169V118h-5.33V79.68H140.33v15h5.33V117a16.17,16.17,0,0,1-7.36,2c-2,0-3.55-.51-4.57-1.78a8.65,8.65,0,0,1-1.77-5.58v-32h-23.6v15Zm65.21,0V118h-5.32v15h28.67V118h-5.33V94.65h9.64v-15h-9.64V71.82a4.46,4.46,0,0,1,.76-3A5.23,5.23,0,0,1,201,68a36.65,36.65,0,0,1,4.32.51l1.52-14.21a50.27,50.27,0,0,0-10.15-1,24.79,24.79,0,0,0-9.14,1.27A11.21,11.21,0,0,0,182,58.11a13.43,13.43,0,0,0-2.79,5.33,31.13,31.13,0,0,0-.76,7.36v8.88h-6.35v15Zm38.07,0V118h-5.33v15h28.68V118H235V94.65h9.64v-15H235V71.82c0-1.53.25-2.54.76-3a5.21,5.21,0,0,1,3.3-.76,36.76,36.76,0,0,1,4.31.51l1.52-14.21a50.14,50.14,0,0,0-10.15-1,24.74,24.74,0,0,0-9.13,1.27A11.24,11.24,0,0,0,220,58.11a13.56,13.56,0,0,0-2.79,5.33,31.66,31.66,0,0,0-.76,7.36v8.88h-6.34v15ZM276.6,133V118h-4.31V95.67a15.43,15.43,0,0,1,7.36-2c2,0,3.81.51,4.82,1.78s1.52,3,1.52,5.58v17h-4.31v15h27.66V118H304V96.68c0-5.58-1.27-9.89-4.06-13.19s-6.6-4.82-11.93-4.82c-6.34,0-11.42,2.53-15.73,7.36H272V79.68H248.69v15H254V118h-5.33v15ZM367.2,53.8v15h5.33V118H367.2v15h28.67V118h-5.33V53.8Zm33.24,0v15h5.33V118h-5.33v15h28.68V118h-5.33V53.8Zm74.1,50.5c-2.79-2-6.09-3-14.46-5.08-10.41-2.28-10.92-2.79-10.92-4.57,0-1.52.51-2.79,5.08-2.79a47.38,47.38,0,0,1,8.37.76v3.3h14V80.7h-.76c-10.66-1.53-15.73-2-21.82-2-7.36,0-12.18,1.27-16,4.82-3.55,3-5.08,7.36-5.08,12.69,0,9.39,5.08,13.45,20.81,16.75,7.87,1.52,7.87,1.52,8.88,2,.77.5,1.78,1,1.78,2,0,3.29-4.31,3.55-6.09,3.55a51.45,51.45,0,0,1-10.91-1.27V115h-14v15.48l.51.25a81,81,0,0,0,23.85,3.3c14.21,0,22.08-6.09,22.08-17.26.25-5.58-1.52-9.64-5.33-12.43m-118.25,9.64,7.36,12.44-.77.5C354.51,132,347.4,134,339,134c-16.75,0-27.15-10.66-27.15-27.66S322,78.67,338.27,78.67c10.91,0,19.29,5.33,23.09,14.46,1.78,4.57,2.29,8.38,2.54,18v.76h-35c1.52,5.33,4.82,7.61,10.66,7.61,5.58,0,9.9-1.27,16.24-5.07Zm-27.66-14h19.28v-.76c-1.52-4.82-4.31-6.85-9.64-6.85q-7.23,0-9.14,6.85c-.5.51-.5.51-.5.76Z"/></g></g></svg>