<?xml version="1.0" encoding="UTF-8"?>
<svg width="220px" height="60px" viewBox="0 0 220 60" version="1.1" xmlns="http://www.w3.org/2000/svg" xmlns:xlink="http://www.w3.org/1999/xlink">
    <!-- Generator: Sketch 57.1 (83088) - https://sketch.com -->
    <title>Icon/Courier/UPS</title>
    <desc>Created with Sketch.</desc>
    <g id="Icon/Courier/UPS" stroke="none" stroke-width="1" fill="none" fill-rule="evenodd">
        <g id="UPS-Logo" transform="translate(86.000000, 0.000000)">
            <path d="M23.9788546,57.1185781 C24.507489,56.8839611 37.1524229,51.3811257 41.1277533,48.0964875 C45.2933921,44.6625476 47.492511,39.7355904 47.492511,33.8275074 L47.492511,6.10004232 L47.154185,5.90808295 C37.0255507,0.405247567 24.4863436,0.767837495 23.9577093,0.789166314 C23.4713656,0.767837495 10.9321586,0.405247567 0.803524229,5.90808295 L0.465198238,6.10004232 L0.465198238,33.8275074 C0.465198238,39.7142615 2.66431718,44.6412188 6.80881057,48.0964875 C10.8052863,51.3811257 23.4502203,56.8839611 23.9788546,57.1185781" id="Path" fill="#513628"></path>
            <path d="M23.9788546,57.6304697 C23.9788546,57.6304697 10.5726872,51.8077021 6.44933921,48.3737622 C2.11453744,44.7905205 0.0211453744,39.778248 0.0211453744,33.9554803 L0.0211453744,5.33220482 C10.5938326,-0.405247567 23.9577093,0.0426576386 23.9577093,0.0426576386 C23.9577093,0.0426576386 37.3427313,-0.405247567 47.9154185,5.33220482 L47.9154185,33.9768091 C47.9154185,39.778248 45.8220264,44.8118493 41.50837,48.395091 C37.385022,51.7863733 23.9788546,57.6304697 23.9788546,57.6304697 L23.9788546,57.6304697 Z M1.92422907,33.9554803 C1.92422907,39.3303428 3.91189427,43.788066 7.63348018,46.8807448 C10.9955947,49.6534913 21.1453744,54.2605163 23.9577093,55.5189166 C26.7911894,54.2605163 36.9409692,49.6534913 40.2819383,46.8807448 C44.0246696,43.788066 45.9911894,39.309014 45.9911894,33.9554803 L45.9911894,5.73745239 C31.8449339,4.41506559 15.1400881,5.22556073 1.9030837,17.468303 L1.9030837,33.9554803 L1.92422907,33.9554803 Z" id="Shape" fill="#FDBD10" fill-rule="nonzero"></path>
            <path d="M37.4907489,29.9883199 C39.3515419,31.0974185 40.09163,31.8225984 40.1339207,33.1449852 C40.1762115,34.6380025 39.1612335,35.5338129 37.5964758,35.5124841 C36.2431718,35.5124841 34.6361233,34.7446466 33.5577093,33.7848498 L33.5577093,37.7093525 C34.8898678,38.4985188 36.539207,39.0317393 38.2096916,39.0317393 C42.3753304,39.0317393 44.2572687,36.0457046 44.3207048,33.3369446 C44.4052863,30.8628015 43.707489,28.9645366 40.1973568,26.8743123 C38.6114537,25.9358443 37.385022,25.3386373 37.4273128,23.7816335 C37.4696035,22.2672873 38.7171806,21.7340669 39.9013216,21.7553957 C41.3814978,21.7767245 42.7982379,22.5872196 43.6863436,23.5043589 L43.6863436,19.7931443 C42.9462555,19.2172662 41.3603524,18.3427846 39.0555066,18.4067711 C36.2854626,18.4920863 33.3674009,20.5183242 33.3885463,23.9522641 C33.3885463,26.2344477 34.0229075,27.9407533 37.4907489,29.9883199" id="Path" fill="#FDBD10"></path>
            <path d="M23.1330396,38.7331358 C23.5559471,38.8611088 24.169163,38.9677529 25.0361233,38.9677529 C29.7303965,38.9677529 32.415859,34.701989 32.415859,28.4739738 C32.415859,22.2672873 29.645815,18.4067711 24.6132159,18.4067711 C22.30837,18.4067711 20.4475771,18.9186627 18.9251101,19.9211172 L18.9251101,47.6912399 L23.154185,47.6912399 L23.154185,38.7331358 L23.1330396,38.7331358 Z M23.1330396,22.1606433 C23.4713656,21.9900127 24.0634361,21.8620398 24.6343612,21.8620398 C27.0872247,21.8620398 28.1022026,23.84562 28.1022026,28.6019467 C28.1022026,33.2516293 26.939207,35.5124841 24.507489,35.5124841 C23.9365639,35.5124841 23.4290749,35.3631824 23.1330396,35.2565383 L23.1330396,22.1606433 Z" id="Shape" fill="#FDBD10" fill-rule="nonzero"></path>
            <path d="M10.3823789,39.0530681 C12.9621145,39.0530681 15.1400881,38.4558612 16.7471366,37.3467626 L16.7471366,18.8760051 L12.539207,18.8760051 L12.539207,34.936606 C12.0740088,35.2565383 11.3973568,35.4484977 10.5303965,35.4484977 C8.58502203,35.4484977 8.31013216,33.6568769 8.31013216,32.4411342 L8.31013216,18.8546763 L4.08105727,18.8546763 L4.08105727,32.2491748 C4.08105727,36.7495556 6.19559471,39.0530681 10.3823789,39.0530681" id="Path" fill="#FDBD10"></path>
            <path d="M38.738326,55.5402455 L38.738326,58.312992 L39.245815,58.312992 L39.245815,57.1612357 L39.3092511,57.1612357 C39.3515419,57.2252222 40.0493392,58.312992 40.0493392,58.312992 L40.6414097,58.312992 C40.6414097,58.312992 39.8801762,57.2038934 39.8167401,57.0972493 C40.1762115,57.011934 40.4299559,56.7346593 40.4299559,56.3507406 C40.4299559,55.9668218 40.1973568,55.5402455 39.5207048,55.5402455 L38.738326,55.5402455 Z M39.4784141,55.945493 C39.9013216,55.945493 39.9647577,56.1587812 39.9647577,56.3294118 C39.9647577,56.5853576 39.8590308,56.7559882 39.3303965,56.7559882 L39.2669604,56.7559882 L39.2669604,55.9241642 L39.4784141,55.9241642 L39.4784141,55.945493 Z" id="Shape" fill="#FDBD10" fill-rule="nonzero"></path>
            <path d="M41.4026432,56.9266187 C41.4026432,57.950402 40.5779736,58.8035548 39.5418502,58.8035548 C38.5057269,58.8035548 37.6810573,57.950402 37.6810573,56.9266187 C37.6810573,55.8815066 38.5057269,55.0496826 39.5418502,55.0496826 C40.5779736,55.0496826 41.4026432,55.9028354 41.4026432,56.9266187 M39.5418502,54.644435 C38.2942731,54.644435 37.2792952,55.6682184 37.2792952,56.9266187 C37.2792952,58.185019 38.2942731,59.2088024 39.5418502,59.2088024 C40.7894273,59.2088024 41.8044053,58.185019 41.8044053,56.9266187 C41.8044053,55.6682184 40.7894273,54.644435 39.5418502,54.644435" id="Shape" fill="#FDBD10" fill-rule="nonzero"></path>
        </g>
    </g>
</svg>