<?xml version="1.0" encoding="utf-8"?>
<!-- Generator: Adobe Illustrator 25.1.0, SVG Export Plug-In . SVG Version: 6.00 Build 0)  -->
<svg version="1.1" id="Layer_1" xmlns="http://www.w3.org/2000/svg" xmlns:xlink="http://www.w3.org/1999/xlink" x="0px" y="0px"
	 viewBox="0 0 1226.1 202.3" style="enable-background:new 0 0 1226.1 202.3;" xml:space="preserve">
<style type="text/css">
	.st0{fill:#94C63E;}
	.st1{fill:#FFFFFF;}
	.st2{fill:#032B70;}
</style>
<g>
	<path class="st0" d="M803.9,83.3l-83.8,41.8l-40.1-20v-30l40.1,20l77.1-38.5c-11.6-24.8-36.7-42-65.8-42h-81.6v154.3h37l20.2,20.2
		l20.2-20.2h4.2c40.1,0,72.6-32.5,72.6-72.6v-9C804,85.9,803.9,84.6,803.9,83.3z"/>
	<path class="st1" d="M720.1,95.1l-40.1-20v30l40.1,20l83.8-41.8c-0.5-9.5-2.9-18.5-6.7-26.7L720.1,95.1z"/>
	<polygon class="st2" points="680,75.1 720.1,55 760.1,75.1 720.1,95.1 	"/>
	<g>
		<path class="st0" d="M290.5,15.1c1,0,2,0,3,0c18.4,0,36.8-0.1,55.2,0.1c12.4,0.1,24.5,2,35.9,7.5c7.9,3.9,14.8,9.2,20.4,16
			c7.9,9.4,13.3,20.1,15.8,32.2c0.7,3.5,1.2,7.1,1.5,10.7c0.4,4.5,0.6,9,0.4,13.5c-0.5,13.2-2.8,26-9,37.8
			c-7.8,15-20.1,24.9-36,30.3c-7.1,2.5-14.5,3.8-22,4.6c-3.6,0.3-7.2,0.5-10.8,0.5c-17.7,0-35.5,0-53.2,0c-0.5,0-1,0-1.5,0
			C290.5,117.2,290.5,66.2,290.5,15.1z M383.5,89c-0.2-5.6-1.2-11-3-16.3c-2.1-6-5.1-11.5-10-15.7c-6.1-5.2-13.3-7-21-7.5
			c-0.3-0.2-0.7-0.2-1.1-0.1c-0.3,0-0.7-0.1-1-0.1c-5.9,0-11.8,0-17.7,0c-0.2,0-0.3,0-0.1,0.2c0,0.4,0,0.9,0,1.3
			c-0.3,0.4-0.2,0.9-0.2,1.4c0,26.3,0,52.5,0,78.8c0,0.5-0.1,1,0.2,1.4c0,0.3,0,0.7,0,1c-0.2,0.2-0.1,0.2,0.1,0.2c6,0,12.1,0,18.1,0
			c0.3,0.1,0.6,0.1,0.8-0.1c2.7,0,5.3-0.3,7.8-0.9c11.1-2.3,19-8.6,23.4-19.2c2.6-6.2,3.4-12.7,3.7-19.4
			C383.8,92.6,383.9,90.8,383.5,89z"/>
		<path class="st0" d="M202.1,172.6c-22.2-0.4-41.6-8.3-57.4-24.3c-13.9-14.1-21.7-31.2-23-50.9c-1.6-24.7,6.5-46.1,24.1-63.5
			c15.1-14.9,33.5-22.5,54.7-23.1c46.5-1.2,83.2,36.7,82.8,81c-0.2,22.2-8.1,41.4-23.8,57.1C243.8,164.6,224.6,172.3,202.1,172.6z
			 M202,137.1c25.6,0.3,45.7-20.4,46-44.7c0.4-25.6-20.3-45.8-44.7-46.2C177.6,45.8,157,66.7,157,91.6
			C157,116.7,177.4,137,202,137.1z"/>
		<path class="st0" d="M471.7,107.7c-0.1,0.1-0.2,0.2-0.3,0.3c-0.1,0.2-0.2,0.5-0.2,0.8c0,8.1,0,16.1,0,24.2c0,0.3-0.1,0.7,0.3,0.9
			c15.3,0,30.5,0,45.8,0c1.3,0,1.7,0.3,1.7,1.7c-0.1,10.5,0,21,0,31.4c0,1-0.2,1.3-1.3,1.3c-28.1,0-56.3,0-84.4,0
			c-1.3,0-1.3-0.6-1.3-1.5c0-48.3,0-96.7,0-145c0-1.8,0.1-3.6,0-5.4c-0.1-1.2,0.4-1.4,1.4-1.3c4.8,0.1,9.6,0,14.4,0
			c23.2,0,46.4,0,69.6,0c1.2,0,1.5,0.2,1.5,1.5c-0.1,10.5,0,21,0,31.6c0,1.1-0.3,1.4-1.4,1.4c-15.4,0-30.7,0-46.1,0
			c-0.2,0-0.3,0-0.1,0.2c0,0.2,0,0.3,0,0.5c-0.2,0.3-0.2,0.7-0.2,1c0,4.1,0,8.2,0,12.3c0,0.3-0.1,0.7,0.2,1c0,0.4,0,0.9,0,1.3
			c-0.3,2.4-0.3,4.8,0,7.2c0,0.1,0,0.2,0.1,0.2c0.4,0.5,1,0.3,1.5,0.3c14.8,0,29.6,0,44.5,0c0,4.5,0,8.9,0,13.4c0,6.9,0,13.8,0,20.7
			c-14.7,0-29.5,0-44.2,0C472.7,107.5,472.1,107.4,471.7,107.7z"/>
		<path class="st0" d="M93.9,168.2c-12.7,0-25.4,0-38.2,0c-1.2,0-0.9-0.8-0.9-1.4c0-16.7,0-33.4,0-50c0-2.8-0.5-5.4-1.8-8
			C43.2,88,33.5,67.1,23.6,46.2c-4.7-10-9.4-20-14.1-30c-0.1-0.3-0.2-0.6-0.4-1.1c0.5,0,0.9,0,1.3,0c13.3,0,26.6,0,39.9,0
			c1.1,0,1.5,0.4,1.9,1.4c7.1,19.4,14.3,38.8,21.5,58.2c0.2,0.5,0.4,1,0.7,1.7c1-2.7,2-5.2,2.9-7.7c6.5-17.5,13.1-35,19.6-52.5
			c0.2-0.6,0.5-1,1.3-1c13.6,0,27.1,0,40.7,0c0.1,0,0.3,0,0.5,0.1c-1.2,2.6-2.3,5.1-3.5,7.7c-13.3,28.6-26.6,57.2-39.9,85.8
			c-0.6,1.3-1.2,2.6-1.8,3.9c-0.4,0.5-0.2,1.1-0.2,1.7C93.9,132.2,93.9,150.2,93.9,168.2z"/>
		<path class="st0" d="M569,133.9c14.5,0,29,0,43.6,0c1.2,0,1.5,0.2,1.5,1.5c0,10.5,0,21,0,31.6c0,1.1-0.3,1.4-1.4,1.4
			c-27.3,0-54.6,0-81.9,0c-1,0-1.3-0.2-1.3-1.3c0-50.2,0-100.4,0-150.7c0-0.6-0.2-1.3,0.9-1.3c12.7,0,25.4,0,38.2,0.1
			c0,0.7,0,1.4,0,2.1c0,38.4,0,76.7,0,115.1C568.6,132.8,568.3,133.5,569,133.9z"/>
		<path class="st0" d="M290.5,15.1c0,51,0,102.1,0,153.1c-0.5-0.3-0.3-0.8-0.3-1.2c0-50.2,0-100.5,0-150.7
			C290.2,15.9,290,15.4,290.5,15.1z"/>
		<path class="st0" d="M569,133.9c-0.7-0.4-0.3-1-0.3-1.6c0-38.4,0-76.7,0-115.1c0-0.7,0-1.4,0-2.1c0.5,0.5,0.3,1.1,0.3,1.6
			c0,38.5,0,76.9,0,115.3C568.9,132.6,568.9,133.3,569,133.9z"/>
		<path class="st0" d="M93.9,168.2c0-18,0-36,0-54.1c0-0.5-0.2-1.2,0.2-1.7c0,2.3,0,4.6,0,6.9c0,15.8,0,31.6,0,47.4
			C94.2,167.3,94.4,167.8,93.9,168.2z"/>
		<path class="st0" d="M517.4,73.4c-14.8,0-29.6,0-44.5,0c-0.5,0-1.1,0.2-1.5-0.3c14.8,0,29.7,0,44.5,0
			C516.4,73.2,517,72.9,517.4,73.4z"/>
		<path class="st0" d="M471.7,107.7c0.5-0.3,1-0.2,1.5-0.2c14.7,0,29.5,0,44.2,0c-0.3,0.4-0.7,0.3-1.1,0.3c-14.6,0-29.2,0-43.8,0
			C472.2,107.8,471.9,107.7,471.7,107.7z"/>
		<path class="st0" d="M471.5,133.9c-0.5-0.2-0.3-0.6-0.3-0.9c0-8.1,0-16.1,0-24.2c0-0.2,0.1-0.5,0.2-0.8c0,1.8,0.1,3.6,0.1,5.4
			c0,6.3,0,12.6,0,18.9C471.4,132.8,471.5,133.3,471.5,133.9z"/>
		<path class="st0" d="M471.3,64.5c-0.2-0.3-0.2-0.7-0.2-1c0-4.1,0-8.2,0-12.3c0-0.3-0.1-0.7,0.2-1C471.5,55,471.5,59.7,471.3,64.5z
			"/>
		<path class="st0" d="M471.3,72.9c-0.3-2.4-0.3-4.8,0-7.2C471.5,68.2,471.5,70.5,471.3,72.9z"/>
		<path class="st0" d="M471.4,49.7c-0.2-0.2-0.1-0.2,0.1-0.2C471.5,49.6,471.4,49.6,471.4,49.7z"/>
		<path class="st0" d="M329.5,51c0,0.4,0.1,0.9,0.1,1.3c0,26.3,0,52.7,0,79c0,0.4,0,0.9-0.1,1.3c-0.3-0.4-0.2-0.9-0.2-1.4
			c0-26.3,0-52.5,0-78.8C329.3,51.9,329.2,51.4,329.5,51z"/>
		<path class="st0" d="M383.5,94.3c0-1.8,0-3.5,0-5.3C383.9,90.8,383.8,92.6,383.5,94.3z"/>
		<path class="st0" d="M349.4,49.6c-0.4,0.1-0.7,0.1-1.1-0.1C348.7,49.4,349.1,49.4,349.4,49.6z"/>
		<path class="st0" d="M347.8,133.8c0.3-0.2,0.5-0.2,0.8-0.1C348.4,133.9,348.1,133.9,347.8,133.8z"/>
		<path class="st0" d="M329.6,49.5c0,0.1-0.1,0.2-0.1,0.2C329.3,49.5,329.4,49.5,329.6,49.5z"/>
		<path class="st0" d="M329.5,133.7c0.1,0.1,0.1,0.1,0.1,0.2C329.4,133.9,329.3,133.8,329.5,133.7z"/>
	</g>
	<g>
		<path class="st2" d="M843.5,56.7c-7.8,0-13.9-6.3-13.9-14.1s6.1-14.1,13.9-14.1s14.1,6.3,14.1,14.1S851.3,56.7,843.5,56.7z
			 M831.5,163.7v-90h24v90H831.5z"/>
		<path class="st2" d="M909.3,104.5v59.2h-24v-90h23.2v14.8c8.4-11.2,18.1-16.4,32-16.4v23.6C926.5,94.2,914.7,96.7,909.3,104.5z"/>
		<path class="st2" d="M1039.9,126h-62.4c1.9,12.6,9.5,20.7,28,20.7c7.6,0,17.3-2.1,26.1-4.8l2.9,18.5c-11,3-22.3,5.1-31.4,5.1
			c-33.7,0-49.3-20.9-49.3-46.3c0-24.2,16.2-47,45.5-47c27,0,41.1,19.2,41.1,43.2C1040.5,118.2,1040.5,122.9,1039.9,126z
			 M1019.2,111.1c-1.1-12.2-8.2-20.2-20.2-20.2c-11.8,0-19.4,7.4-21.1,20.2H1019.2z"/>
		<path class="st2" d="M1109.8,165.4c-31.8,0-50.8-20.9-50.8-46.3s19-47,50.8-47c11,0,22.1,4,30.1,9.1l-7.8,16.7
			c-6.9-3.8-14.3-6.3-22.8-6.3c-15,0-26.8,9.3-26.8,27.4c0,16.9,12.8,27,28,27c8,0,16-2.5,22.5-6.3l6.7,16.8
			C1132,161.4,1120.8,165.4,1109.8,165.4z"/>
		<path class="st2" d="M1189.9,93.2v41.3c0,8,3.8,11,10.8,11c2.5,0,4.8-0.4,7.8-1l4.4,18.5c-6.7,1.5-12.8,2.5-19.2,2.5
			c-16.9,0-27.6-8.2-27.6-32.2v-40H1149V90l17.1-17.1V58.4l23.8-15v30.3h25.1v19.4L1189.9,93.2L1189.9,93.2z"/>
	</g>
</g>
</svg>
